<svg xmlns="http://www.w3.org/2000/svg" viewBox="0 0 512 512"><defs><style>.cls-4{fill:#f22738}.cls-7{fill:#5f7bce}.cls-8{fill:#2c50bd}.cls-10{fill:#00c76e}.cls-14{fill:#88f3bc}.cls-17{fill:#c2d521}</style></defs><g id="Property_Real_Estate" data-name="Property Real Estate"><rect x="64" y="106.667" width="384" height="256" rx="42.667" ry="42.667" style="fill:#e1c3ff"/><rect x="298.667" y="234.667" width="149.333" height="42.667" rx="21.333" ry="21.333" style="fill:#cd9af3"/><rect x="21.333" y="64" width="469.333" height="170.667" rx="42.667" ry="42.667" style="fill:#ff4957"/><rect class="cls-4" x="64" y="128" width="42.667" height="21.333" rx="10.667" ry="10.667"/><rect class="cls-4" x="298.667" y="85.333" width="42.667" height="21.333" rx="10.667" ry="10.667"/><rect class="cls-4" x="405.333" y="128" width="42.667" height="21.333" rx="10.667" ry="10.667"/><rect class="cls-4" x="341.333" y="128" width="42.667" height="21.333" rx="10.667" ry="10.667"/><rect class="cls-4" x="426.667" y="170.667" width="42.667" height="21.333" rx="10.667" ry="10.667"/><rect class="cls-4" x="362.667" y="85.333" width="42.667" height="21.333" rx="10.667" ry="10.667"/><rect class="cls-4" x="426.667" y="85.333" width="42.667" height="21.333" rx="10.667" ry="10.667"/><path d="M307.503 158.17 222.17 72.837a42.667 42.667 0 0 0-60.34 0L76.497 158.17A42.667 42.667 0 0 0 64 188.34V320a42.667 42.667 0 0 0 42.667 42.667h170.666A42.667 42.667 0 0 0 320 320V188.34a42.667 42.667 0 0 0-12.497-30.17z" style="fill:#f6edff"/><path d="M313.751 164.418 212.913 63.578a21.334 21.334 0 0 0-34.179 5.57l-1.217 2.442c-.072.144-.073.303-.14.448A14.925 14.925 0 0 0 160 74.667l-91.582 91.582a15.085 15.085 0 1 0 21.333 21.333s48.466-48.345 73.578-73.337a25.712 25.712 0 0 1 36.374.124l50.048 50.049A21.332 21.332 0 0 1 256 179.503V192a21.333 21.333 0 0 1-21.333 21.333h-64a21.333 21.333 0 1 0 0 42.667H224a32 32 0 0 1 0 64h-10.667a21.333 21.333 0 0 0 0 42.667h64A42.667 42.667 0 0 0 320 320V179.504a21.335 21.335 0 0 0-6.249-15.086z" style="fill:#e7ceff"/><path class="cls-7" d="M192 234.667a42.667 42.667 0 0 1 42.667 42.666v85.334h-85.334v-85.334A42.667 42.667 0 0 1 192 234.667z"/><rect class="cls-8" x="149.333" y="277.333" width="21.333" height="85.333" rx="10.667" ry="10.667"/><rect class="cls-7" x="85.333" y="234.667" width="42.667" height="85.333" rx="21.333" ry="21.333"/><rect class="cls-8" x="85.333" y="256" width="21.333" height="42.667" rx="10.667" ry="10.667"/><rect class="cls-7" x="256" y="234.667" width="42.667" height="85.333" rx="21.333" ry="21.333"/><rect class="cls-7" x="362.667" y="234.667" width="42.667" height="106.667" rx="21.333" ry="21.333"/><rect class="cls-8" x="149.333" y="170.667" width="85.333" height="21.333" rx="10.667" ry="10.667"/><path d="M32 202.667a15.085 15.085 0 0 0 21.333 0L192 64l138.667 138.667a15.085 15.085 0 0 0 21.333 0 15.085 15.085 0 0 0 0-21.334L228.418 57.752A51.503 51.503 0 0 0 192 42.667a51.503 51.503 0 0 0-36.418 15.085L32 181.333a15.085 15.085 0 0 0 0 21.334z" style="fill:#ff747f"/><rect class="cls-4" x="42.667" y="106.667" width="42.667" height="21.333" rx="10.667" ry="10.667"/><circle class="cls-8" cx="384" cy="277.333" r="21.333"/><rect class="cls-8" x="256" y="277.333" width="21.333" height="42.667" rx="10.667" ry="10.667"/><g><path class="cls-10" d="M458.667 277.333a31.902 31.902 0 0 0-30.1 21.525c-.644-.029-1.25-.191-1.9-.191-30.416 0-53.399 31.824-37.462 63.995 6.768 13.66 21.753 21.338 36.999 21.338H448a42.667 42.667 0 0 0 42.667-42.667v-32a32 32 0 0 0-32-32z"/><rect x="405.333" y="341.333" width="64" height="42.667" rx="21.333" ry="21.333" style="fill:#00aa6e"/><path d="M458.667 277.333a31.902 31.902 0 0 0-30.1 21.525l-1.03-.118a6.914 6.914 0 0 0-.758-.072h-.03l-.025-.001H426.402l-.08.001h-.008l-.079.001h-.01l-.078.001h-.008l-.08.001h-.008l-.078.001h-.01l-.077.002h-.01l-.079.002h-.009l-.078.001h-.009l-.077.002h-.01l-.078.002h-.01l-.077.003h-.01l-.076.002h-.013l-.075.003h-.011l-.075.003h-.013l-.075.003h-.011l-.076.003h-.012l-.074.004h-.014l-.074.003h-.013l-.074.004h-.012l-.074.004h-.013l-.075.004h-.011l-.076.004h-.01l-.076.005h-.01l-.078.004h-.009l-.077.005h-.01l-.077.005h-.008l-.075.005h-.013l-.072.005-.014.001-.071.005h-.014l-.074.005h-.01l-.075.006h-.011l-.075.006-.012.001-.07.005-.018.001-.071.005-.014.001-.07.006-.018.001-.068.005-.018.002-.068.005-.018.002-.069.005-.017.002-.068.005-.018.002-.068.006-.019.001-.066.006-.02.002-.067.006-.02.002-.064.006-.023.002-.062.006-.024.002-.062.006-.024.002-.064.006-.02.002-.065.007-.021.002-.065.007-.021.002-.064.006-.023.003-.063.006-.022.003-.063.007-.024.002-.062.007-.023.003-.06.006-.026.003-.063.008-.019.002-.061.007-.027.003-.058.007-.026.003-.054.006-.033.004-.055.007-.026.003-.054.007-.035.004-.05.006-.034.005-.048.006-.038.005-.05.006-.029.004-.055.008-.032.004-.053.007-.028.004-.054.007-.037.005-.048.007-.03.004-.053.008-.036.004-.05.008-.03.004-.053.008-.033.004-.053.008-.03.005-.055.008-.031.004-.053.008-.032.005-.051.008-.035.005-.05.008-.033.005-.05.008-.037.006-.048.008-.036.005-.04.007-.046.007-.047.008-.035.005-.043.008-.043.007-.033.005-.052.009-.032.005-.052.01-.03.004-.054.01-.031.005-.054.01-.027.004-.058.01-.024.005-.061.01-.022.005-.06.01-.025.005-.062.01-.02.005-.064.011-.02.004-.064.012-.02.004-.062.011-.022.005-.064.012-.019.004-.065.012-.018.003-.068.014-.014.002-.066.013-.02.004-.065.013-.018.004-.068.014-.015.003-.073.015-.009.001-.073.015-.011.003-.079.016h-.003a42.704 42.704 0 0 0-33.461 35.53v.002a3.942 3.942 0 0 1-.013.084v.002l-.011.083-.001.003-.012.083v.002c-.026.186-.051.371-.075.558v.003l-.01.082v.006a3.332 3.332 0 0 0-.011.08v.008l-.01.076-.002.012-.008.073-.002.013-.008.07-.002.018-.008.067-.002.018-.008.067-.002.019-.007.064-.003.022-.007.063-.002.022a2.266 2.266 0 0 0-.007.067l-.002.018-.006.06-.003.026-.006.058-.003.027-.004.041-.004.04-.004.046-.003.026-.006.06-.003.027-.005.058-.002.024-.006.061-.003.026a1.718 1.718 0 0 1-.005.06l-.002.025-.006.06-.002.025-.006.062-.002.022c0 .02-.003.041-.005.061l-.002.029-.004.056-.003.03-.004.053-.003.032-.005.056-.002.029-.004.052-.003.035-.003.047-.003.038-.003.04-.003.048-.003.035-.003.05-.003.036-.004.051-.002.035-.003.05-.002.035-.004.053-.002.031-.003.052-.003.034-.003.055-.001.028-.003.05-.002.037-.003.049-.002.036a.996.996 0 0 0-.003.045l-.002.04-.002.049-.002.032-.003.053-.001.03-.003.056-.002.024c0 .021 0 .041-.002.061l-.001.026-.003.061-.001.024-.003.062v.026c-.002.02-.003.039-.003.06l-.001.027-.002.057-.002.03-.002.06-.001.023-.002.063v.024l-.003.062v.024l-.003.063v.024l-.002.059v.027l-.003.057v.029l-.001.054-.001.032-.001.053-.001.032-.001.056-.001.024-.001.064v.018l-.002.068V340.722l-.002.065v.088l-.002.02v.241l-.001.018V341.583l.001.075v.009l.001.075v.094l.002.081v.006l.001.08v.008l.002.077v.086l.001.012.002.076v.01l.002.077v.01l.002.076v.013l.002.075v.01l.003.078v.008c0 .027.001.054.003.08v.007l.002.08v.008l.003.08v.004l.003.084v.002l.007.17v.003l.004.085v.002l.003.086.001.001.004.085v.003l.004.083v.005l.004.083v.004l.005.084v.003l.01.171v.004l.004.085v.001a47.866 47.866 0 0 0 4.045 16.416 10.667 10.667 0 0 0 19.54-8.562c-4.649-10.609-1.292-18.39 1.123-22.084a21.303 21.303 0 0 1 17.027-9.675c.663.07 1.392.135 1.809.153.319.015.636.021.954.021a21.334 21.334 0 0 0 20.138-14.315 10.645 10.645 0 0 1 9.955-7.21 10.679 10.679 0 0 1 10.666 10.667v32a21.62 21.62 0 0 1-.403 4.17 10.667 10.667 0 1 0 20.931 4.124q.122-.618.226-1.243l.004-.022.003-.023.008-.044.002-.012.008-.053.003-.013.008-.054.001-.006.01-.061a42.91 42.91 0 0 0 .509-5.318v-.003l.002-.063v-.011l.002-.058v-.01l.002-.056v-.015l.002-.052v-.019l.002-.048v-.021l.002-.048v-.066l.001-.023.002-.045v-.023l.001-.043v-.026l.001-.041v-.027l.001-.04v-.028l.001-.04.001-.028v-.068l.001-.04v-.095l.002-.043v-32.364a32 32 0 0 0-32-32z" style="fill:#56da9f"/></g><g><path d="M213.333 362.666a63.47 63.47 0 0 0-21.992 4.124A53.157 53.157 0 0 0 138.667 320a51.54 51.54 0 0 0-13.337 1.748 29.516 29.516 0 0 1-29.476-8.72c-13.802-15.597-38.82-20.995-62.545-3.395-7.801 5.787-11.976 15.255-11.976 24.969v44.867c0 28.12 19.103 47.197 42.667 47.197h148.227c41.259 0 43.418-63.322 2.165-63.991q-.528-.009-1.059-.009z" style="fill:#19e77c"/><path class="cls-14" d="M64 298.667c-9.558 0-19.865 3.15-29.964 10.434q-.363.262-.727.531c-7.801 5.788-11.976 15.256-11.976 24.97v45.04l.001.033V379.898l.001.04v.134l.002.037v.133l.002.04v.086l.002.064v.02l.001.085.001.034.001.052.001.035v.05l.001.037.002.05v.037l.002.046v.042l.002.044v.04l.002.046v.038l.002.049v.037l.002.047.001.039.002.047.001.038.001.052.002.033.002.083.001.035.002.049.002.042.001.043.001.04.002.045.002.04.002.045.001.04.002.044.002.04.002.046.001.037.002.049.002.037.002.044.002.042.002.04.002.045.001.037.003.046.001.03.006.105v.03l.003.048.002.035.002.045.003.04.002.043.003.04.002.045.002.038.003.047.002.035.002.048.003.036.003.048.002.034.003.049.002.036.003.047.002.034.003.049.002.032.009.127v.002l.004.059.002.024.004.053.002.03.003.053.003.029.003.05.002.034.004.048.002.035.004.048.003.034.004.049.002.033.004.049.002.032.004.05.003.03.004.053.002.017.016.203.002.021.004.05.003.033.005.05.002.03.005.053.002.03.005.052.003.029.005.052.002.029.005.054.002.024.006.058.002.02.006.061v.016l.007.066.031.306.001.009.007.066.002.014.006.064.002.016.007.063.002.018.006.06.002.021.007.06.002.018.007.063.002.014.007.067v.005l.055.46v.003l.008.068.001.013.009.065.001.013.009.065.002.015.007.065.002.011.009.068.001.01.01.07c.023.18.046.36.072.538v.002l.021.151v.004c.044.307.09.61.139.914a52.226 52.226 0 0 0 1.965 8.134c.06.185.123.368.185.55v.001l.022.062.003.01.02.057.005.014.018.055.006.015.019.054.006.018.018.052.006.016.019.054.005.013.02.058.002.005.09.254.006.016.016.045.01.025.016.046.009.025.016.042.01.03.015.04.012.03.013.038.013.035.013.036.014.037.012.03.016.044.01.027.02.053.006.017.026.07.055.145.005.012.023.06.005.012.022.057.006.018.022.055.006.016.022.057.004.012.025.061.003.01.025.063.003.009q.17.433.348.862a10.667 10.667 0 1 0 19.705-8.175 32.694 32.694 0 0 1-2.322-12.575v-44.867c0-3.3 1.284-6.302 3.352-7.836C52.072 322.276 58.122 320 64 320a21.092 21.092 0 0 1 14.525 5.77 10.667 10.667 0 1 0 14.638-15.52 42.339 42.339 0 0 0-26.401-11.495h-.004l-.06-.004h-.007l-.06-.004h-.007a47.196 47.196 0 0 0-.382-.022h-.006l-.057-.003-.011-.001-.053-.003h-.016l-.052-.003h-.015l-.052-.003h-.014l-.055-.003h-.002l-.252-.01-.011-.001-.051-.002h-.019l-.05-.002-.017-.001-.05-.002h-.018l-.051-.002h-.015l-.053-.002h-.013l-.18-.006h-.007l-.045-.001h-.026l-.042-.002h-.027l-.041-.001-.029-.001h-.04l-.03-.001-.039-.001h-.032l-.039-.001-.03-.001h-.039l-.03-.001-.07-.001H64.493l-.035-.001H64.386l-.034-.001h-.14l-.04-.001H64.002z"/><path class="cls-10" d="M206.198 405.333h-128a10.667 10.667 0 1 0 0 21.333h128a10.667 10.667 0 0 0 0-21.333z"/><path class="cls-14" d="M149.953 321.517a10.668 10.668 0 0 0-2.835 20.95 31.818 31.818 0 0 1 23.051 26.943 21.333 21.333 0 0 0 28.533 17.403 42.735 42.735 0 0 1 15.295-2.808h.049c3.845.063 7.554.959 8.661 7.04a10.666 10.666 0 1 0 20.988-3.82 33.182 33.182 0 0 0-2.346-7.628l-.002-.004-.014-.033-.001-.002-.077-.168-.003-.008-.013-.029-.004-.007-.013-.028-.003-.008a5.03 5.03 0 0 0-.044-.096l-.002-.003-.013-.027-.005-.011-.012-.027-.004-.009-.013-.028-.004-.006-.044-.095-.002-.005-.013-.026-.006-.012-.011-.024-.006-.013-.012-.024-.005-.012-.043-.088-.003-.008-.011-.023-.008-.016-.01-.02-.01-.018-.008-.02-.01-.018-.01-.02-.008-.018-.014-.029-.013-.025-.007-.016-.012-.023-.008-.016-.01-.021-.009-.018-.01-.02-.008-.018-.013-.025-.006-.012-.018-.037-.006-.011-.015-.028-.006-.012-.012-.025-.008-.015-.012-.024-.007-.013-.016-.032-.002-.006-.02-.039-.004-.006-.016-.03-.007-.015-.012-.024-.007-.014-.014-.026-.006-.012-.016-.031-.003-.006-.02-.04-.02-.038-.004-.006-.017-.032-.004-.009-.016-.03-.005-.01-.016-.03-.005-.007a3.346 3.346 0 0 0-.04-.078l-.004-.006-.017-.033-.004-.006-.017-.032-.004-.008-.018-.034-.002-.004-.043-.078-.002-.004-.018-.034-.004-.008-.018-.032-.003-.006-.02-.037-.066-.12v-.001l-.021-.037-.003-.004c-4.222-7.597-11.726-13.309-22.608-14.394h-.002a38.351 38.351 0 0 0-.862-.076h-.002l-.055-.004h-.003l-.23-.017h-.005l-.052-.003h-.006l-.228-.015h-.007l-.05-.004h-.008l-.049-.003h-.01a13.45 13.45 0 0 0-.112-.007h-.006l-.052-.003h-.009l-.046-.003h-.012l-.05-.003h-.006l-.116-.006-.056-.002-.011-.001-.044-.002h-.015l-.043-.002-.014-.001a13.4 13.4 0 0 0-.113-.005h-.006l-.05-.002h-.016l-.039-.002h-.018l-.04-.002h-.016l-.045-.002h-.011l-.058-.002h-.003l-.053-.002h-.013l-.045-.002h-.013l-.043-.001h-.017l-.044-.002h-.01l-.115-.003h-.055l-.022-.001-.035-.001h-.021l-.037-.001h-.02l-.055-.001h-.07a64.659 64.659 0 0 0-22.659 3.997l-.015.006-.092.033-.128.047-.006.002-.081.03-.01-.071-.002-.023-.006-.048-.003-.027-.006-.047-.003-.025-.007-.052-.003-.02a2.6 2.6 0 0 0-.009-.07l-.002-.016-.007-.055-.003-.024-.007-.048-.003-.026-.007-.046-.003-.025-.02-.143-.002-.017-.007-.054-.003-.023-.008-.049-.003-.024-.008-.06-.002-.009a2.673 2.673 0 0 1-.01-.074l-.001-.008-.01-.063-.003-.02-.007-.05-.003-.025-.008-.051-.003-.02-.022-.144-.002-.012-.008-.06-.003-.02-.009-.052-.002-.02a1.81 1.81 0 0 1-.01-.058l-.002-.013-.022-.143-.004-.021-.008-.052-.003-.02-.009-.055-.003-.017-.01-.068-.001-.003-.012-.072-.003-.017-.01-.055-.002-.02-.009-.052-.004-.022-.008-.052-.004-.019a2.67 2.67 0 0 0-.012-.07v-.006l-.012-.066-.003-.018a1.354 1.354 0 0 1-.009-.053l-.004-.022-.009-.053-.003-.017a1.99 1.99 0 0 1-.01-.061l-.003-.01-.013-.072-.002-.013-.01-.058-.004-.02-.01-.052-.003-.02-.01-.054-.003-.019a10.723 10.723 0 0 0-.026-.14l-.003-.018-.01-.055-.004-.02-.01-.05-.004-.023a1.662 1.662 0 0 1-.01-.056l-.003-.013-.013-.072-.002-.008-.012-.062-.004-.02-.01-.05-.004-.023-.01-.053-.003-.016-.029-.143-.003-.013-.01-.058-.004-.017a1.715 1.715 0 0 1-.012-.057l-.003-.014-.013-.065-.001-.006-.03-.144-.003-.017-.011-.054-.004-.018-.011-.055-.004-.017-.03-.142-.002-.011-.013-.06-.003-.016-.012-.056-.004-.016-.013-.062-.002-.008-.016-.073v-.002l-.015-.068-.004-.015-.012-.056-.004-.018-.012-.055-.004-.016a2.385 2.385 0 0 0-.015-.067v-.003l-.016-.072-.002-.008-.014-.062-.004-.017a1.484 1.484 0 0 1-.012-.055l-.004-.016-.014-.059-.003-.012-.032-.14-.004-.017-.013-.054-.004-.018-.013-.055-.004-.016a10.056 10.056 0 0 0-.034-.142v-.004l-.016-.066-.004-.014-.013-.056-.004-.017-.015-.06-.002-.01a11.39 11.39 0 0 1-.035-.142l-.002-.01-.015-.06-.004-.016-.014-.055-.004-.015-.016-.064-.002-.006-.017-.072-.002-.005-.016-.063-.004-.02-.014-.05-.005-.02-.013-.051-.005-.019-.035-.137-.005-.02-.013-.049-.006-.022-.012-.047-.006-.023a1.684 1.684 0 0 1-.015-.054l-.003-.013-.018-.069-.004-.015-.014-.053-.006-.022-.013-.047-.006-.023-.014-.05-.005-.019-.016-.06-.003-.009a2.61 2.61 0 0 0-.018-.068l-.005-.015-.014-.054-.006-.02-.014-.051-.005-.016a1.881 1.881 0 0 0-.015-.057l-.003-.013-.04-.139-.004-.015-.015-.054-.005-.018-.015-.052-.005-.017c-.006-.023-.012-.045-.02-.068l-.02-.07-.003-.011-.016-.058-.005-.018-.015-.05-.006-.022-.015-.05-.005-.016-.02-.069v-.003l-.02-.065-.005-.019-.015-.047-.007-.024-.014-.048-.005-.019-.02-.066-.021-.07-.005-.015-.015-.05-.008-.027-.013-.042-.007-.024-.015-.047-.006-.02a2.14 2.14 0 0 0-.02-.067l-.002-.008-.019-.058-.007-.024-.014-.044-.007-.025-.013-.042-.009-.026-.014-.046-.007-.02-.02-.065-.008-.026-.013-.04-.009-.028-.012-.04-.01-.027-.013-.044-.006-.02-.019-.057-.006-.02-.018-.056-.009-.026-.013-.04-.008-.027-.014-.04-.008-.028-.014-.04-.008-.026-.021-.063-.006-.017-.017-.05-.007-.024-.014-.043-.009-.025c-.004-.014-.01-.028-.013-.041l-.01-.027-.02-.06v-.004l-.023-.066-.007-.021-.016-.046-.008-.024-.014-.041-.008-.026-.017-.047-.006-.019-.023-.065-.004-.013-.018-.053-.008-.022-.015-.044-.009-.025-.016-.044-.007-.021-.018-.054-.005-.013-.023-.066-.006-.016-.016-.047-.01-.027-.015-.042-.008-.023-.017-.047-.006-.018-.024-.066-.003-.008-.02-.058-.008-.021-.016-.045-.008-.022-.016-.044-.01-.025c-.004-.015-.01-.03-.016-.045l-.006-.02-.022-.062-.01-.028-.015-.038-.01-.029-.013-.035-.011-.03-.015-.04-.009-.024-.024-.063-.003-.01-.02-.054-.01-.026-.015-.04-.01-.028-.014-.036-.01-.029-.016-.038-.01-.027-.023-.062-.008-.02-.017-.044-.01-.025-.016-.042-.009-.025-.015-.039-.01-.027-.019-.049-.01-.024-.02-.052-.011-.03-.014-.033-.011-.032-.013-.031-.013-.035-.013-.032-.012-.029-.023-.06-.012-.029-.014-.036-.012-.03-.013-.034-.012-.03-.014-.035-.012-.03-.016-.039-.014-.036-.02-.048-.01-.027-.015-.037-.013-.032-.012-.03-.014-.033-.012-.03-.014-.034-.009-.021-.03-.076-.01-.022-.016-.04-.01-.022-.016-.04-.009-.021-.016-.04-.008-.02-.06-.144-.006-.014-.018-.042-.01-.022-.016-.04-.009-.021-.017-.04-.005-.012-.034-.08-.012-.027-.014-.035-.012-.026-.015-.036-.011-.027-.016-.036-.01-.02c-.018-.045-.038-.092-.058-.136l-.01-.024-.015-.036-.012-.027-.015-.033-.013-.03-.015-.035-.008-.018-.036-.082-.007-.016-.017-.038-.01-.025-.018-.037-.009-.022-.018-.04-.009-.02-.03-.07-.013-.027-.016-.034-.011-.027-.017-.036-.01-.025-.018-.037-.01-.024-.017-.037-.01-.022-.034-.076-.01-.019-.018-.04-.009-.02-.017-.039-.011-.024-.017-.037-.01-.022-.063-.135-.009-.018-.02-.042-.008-.018-.018-.04-.01-.02-.02-.043v-.002a13.923 13.923 0 0 0-.075-.157l-.005-.01-.022-.048-.005-.01-.022-.048-.005-.009a24.17 24.17 0 0 0-.098-.205l-.007-.016-.022-.044-.006-.012-.022-.047-.002-.003-.075-.154-.006-.012-.02-.043-.009-.017-.02-.043-.007-.012-.102-.208-.003-.005-.024-.049-.005-.009-.104-.208-.004-.007-.025-.05-.003-.005-.026-.052-.001-.003-.11-.215-.027-.054-.001-.001c-.047-.09-.092-.18-.14-.27v-.002q-.155-.296-.314-.59l-.001-.004-.027-.05-.003-.005q-.23-.428-.469-.852a53.444 53.444 0 0 0-17.586-18.698l-.204-.131-.05-.032-.003-.002-.253-.16-.003-.002-.05-.031-.001-.001q-.256-.16-.513-.318l-.003-.002-.049-.03-.006-.003-.048-.03h-.002l-.2-.122-.011-.006-.041-.025-.016-.01-.189-.112-.015-.009-.04-.023-.016-.01-.04-.023-.016-.01-.13-.077-.017-.01-.037-.022-.021-.012-.037-.021-.02-.012-.036-.021-.02-.011-.088-.052h-.001l-.037-.022-.022-.013-.033-.019-.027-.015-.032-.019-.022-.012-.037-.022-.008-.004-.076-.043-.027-.016-.031-.018-.028-.015-.031-.018-.027-.015-.032-.018-.034-.02-.023-.013-.056-.03-.029-.017-.03-.017-.03-.017-.029-.016-.03-.017-.032-.017-.027-.015-.043-.024-.03-.017-.044-.024-.021-.012-.038-.021-.026-.014-.036-.02-.022-.012-.044-.024-.018-.01-.059-.032-.014-.008-.044-.024-.025-.013-.04-.022-.018-.01-.05-.026-.01-.006-.124-.067-.015-.008-.046-.024-.019-.01-.043-.024-.02-.01-.047-.025-.013-.007-.06-.032-.015-.008-.05-.026-.013-.007-.048-.025-.016-.009-.05-.026-.012-.006-.126-.066-.008-.004-.054-.028-.015-.008-.05-.026-.012-.006-.056-.029-.007-.003-.128-.066-.009-.005-.056-.028-.01-.005-.056-.029-.007-.003-.193-.098-.009-.004-.056-.028-.01-.005a52.415 52.415 0 0 0-9.528-3.654 10.68 10.68 0 0 0-2.8-.375z"/><rect class="cls-14" x="21.333" y="320" width="64" height="42.667" rx="21.333" ry="21.333"/><rect class="cls-14" x="106.667" y="341.333" width="64" height="42.667" rx="21.333" ry="21.333"/></g><g><path d="M468.576 212.576 406.09 150.09a75.425 75.425 0 0 0-106.667 106.667l9.91 9.909-151.165 151.162a30.17 30.17 0 0 0 42.667 42.667L224 437.333 234.667 448l16.915 16.915a15.086 15.086 0 0 0 21.333 0 15.084 15.084 0 0 0 0-21.333l-6.24-6.24a30.17 30.17 0 1 1 42.667-42.666l6.24 6.24a15.086 15.086 0 0 0 21.333 0v-.002a15.084 15.084 0 0 0 0-21.332L320 362.667 309.333 352 352 309.333l9.909 9.91a75.424 75.424 0 0 0 106.665 0l.002-.002a75.425 75.425 0 0 0 0-106.665zm-30.171 76.496a32.757 32.757 0 0 1-46.327 0l-62.484-62.485a32.758 32.758 0 0 1 46.327-46.327l62.484 62.485a32.757 32.757 0 0 1 0 46.327z" style="fill:#d7e816"/><path d="M299.208 206.583a10.09 10.09 0 0 1-1.479-.104 10.656 10.656 0 0 1-9.104-12.02 64.04 64.04 0 0 1 18.333-36.824c24.5-24.458 67.084-24.458 91.584 0l5.687 5.688a10.666 10.666 0 1 1-15.083 15.083l-5.688-5.687c-16.416-16.396-45-16.396-61.416 0a42.85 42.85 0 0 0-12.292 24.656 10.659 10.659 0 0 1-10.542 9.208z" style="fill:#f1f7ae"/><path class="cls-17" d="M461.033 209.452a10.666 10.666 0 0 0-7.542 18.209A54.092 54.092 0 0 1 415.24 320a54.619 54.619 0 0 1-9.475-.83 10.667 10.667 0 0 0-3.733 21.004l.253.045.108.018.01.002.099.017.015.003.094.016.018.003.094.015.015.003.1.017.009.001.554.09.012.002.096.015.02.003.09.014.023.003.086.014.026.004.085.013.023.003.086.013.025.004.087.013.022.003.094.014.015.002c.11.017.222.033.332.048l.011.002.096.014.025.003.085.012.028.004.08.011.032.005.077.01.034.005.074.01.034.005.079.01.03.004.082.011.027.004.095.012.013.002.222.028.007.001.101.013.024.003.085.01.03.004.078.01.035.004.073.01.037.004.073.009.037.004.073.009.036.004.074.009.035.004.08.01.027.002.095.011.014.002.221.025.013.001.096.01.027.004.081.008.034.004.075.008.037.004.071.008.04.004.07.007.038.004.071.007.038.004.074.008.035.003.08.008.028.003.092.009.018.002.11.01h.006l.103.01.029.003.079.008.038.003.07.007.04.003.07.007.04.003.069.006.04.004.07.006.04.003.07.007.038.003.072.006.039.003.077.006.03.003.102.008h.006l.112.01h.007l.1.008.031.003.08.006.033.002.075.006.038.003.07.005.042.003.067.005.043.003.067.004.041.003.07.005.038.003.077.005.031.002.092.006.017.001.222.015h.016l.092.006.033.003.075.004.04.002.068.004.041.003.07.004.04.002.07.004.038.002.071.004.04.002.07.004.039.002.073.004.036.002.085.004.023.001.11.005h.012l.098.005.028.002.08.003.036.002.074.003.038.002.07.003.042.002.067.002.044.002.064.003.045.001.067.003.041.002.069.002.04.001.075.003.034.001.097.004h.01l.112.003h.015l.093.004h.036l.072.003.042.001.068.002.043.001.065.002h.045l.064.002.046.002.065.001.043.001.068.002h.041l.071.002h.037l.076.002h.034l.218.004h.03l.078.002h.04l.069.001h.044l.065.001h.046l.061.001h.049l.061.001h.048l.061.001h.11l.047.001h.325a75.398 75.398 0 0 0 53.335-128.757 10.633 10.633 0 0 0-7.543-3.124z"/><path d="m245.333 437.333 13.942-13.941c-2.54-9.975-.407-20.91 7.4-28.716 7.808-7.808 18.742-9.94 28.717-7.401l13.941-13.942A15.085 15.085 0 0 0 288 352l-64 64a15.085 15.085 0 0 0 21.333 21.333z" style="fill:#b9c600"/><path class="cls-17" d="M159.778 355.124h220.026a15.085 15.085 0 0 1 15.085 15.085 15.085 15.085 0 0 1-15.085 15.085H159.778a15.085 15.085 0 0 1-15.085-15.085 15.085 15.085 0 0 1 15.085-15.085z" transform="rotate(-45 269.79 370.21)"/></g></g></svg>